IKResults
version=1
nRows=26
nColumns=24
inDegrees=yes

Units are S.I. units (second, meters, Newtons, ...)
Angles are in degrees.

endheader
time	pelvis_tilt	pelvis_list	pelvis_rotation	pelvis_tx	pelvis_ty	pelvis_tz	hip_flexion_r	hip_adduction_r	hip_rotation_r	knee_angle_r	ankle_angle_r	subtalar_angle_r	mtp_angle_r	hip_flexion_l	hip_adduction_l	hip_rotation_l	knee_angle_l	ankle_angle_l	subtalar_angle_l	mtp_angle_l	lumbar_extension	lumbar_bending	lumbar_rotation
      1.66000000	    -83.22522992	    112.61958748	     86.42611278	     -0.62508329	      0.11241762	      1.06223155	    -28.91813625	     -2.15453832	    -21.94524682	      1.27143805	      8.31006421	     17.35921964	      0.00000000	    -27.88174023	      0.36998978	    -13.95030189	      0.64262260	      6.11727751	     11.78824382	      0.00000000	    -39.50627768	     -1.96892848	     -0.83949911
      1.68000000	    -83.21657577	    112.16548652	     86.39213908	     -0.62673402	      0.11245665	      1.06205130	    -28.23101751	     -2.17320770	    -21.92083376	      1.15328240	      8.22465059	     17.32250942	      0.00000000	    -27.21676951	      0.35734134	    -13.97715093	      0.55334508	      6.01783074	     11.74015305	      0.00000000	    -39.60177073	     -1.92173774	     -0.85418250
      1.70000000	    -83.18654107	    111.65162834	     86.33704320	     -0.62844348	      0.11246229	      1.06181654	    -27.47682276	     -2.19236741	    -21.87576109	      1.04434648	      8.13449832	     17.25294797	      0.00000000	    -26.46987037	      0.34283741	    -14.01336885	      0.44331800	      5.92931654	     11.70933236	      0.00000000	    -39.66088989	     -1.88212002	     -0.86078906
      1.72000000	    -83.12910448	    111.09459819	     86.24155294	     -0.63020487	      0.11245517	      1.06154869	    -26.67610120	     -2.22397848	    -21.79410540	      0.94980199	      8.03180879	     17.15570029	      0.00000000	    -25.67021855	      0.34025298	    -14.04827194	      0.33237273	      5.83034123	     11.66820426	      0.00000000	    -39.69906623	     -1.85446784	     -0.85225726
      1.74000000	    -83.03004640	    110.50146096	     86.10823066	     -0.63208690	      0.11245665	      1.06125392	    -25.81945528	     -2.26912138	    -21.69221837	      0.83593875	      7.94672595	     17.02084635	      0.00000000	    -24.80503699	      0.34586296	    -14.05422545	      0.18976362	      5.75056873	     11.59079124	      0.00000000	    -39.73283924	     -1.83260821	     -0.84902476
      1.76000000	    -82.93273253	    109.87441526	     85.97257226	     -0.63398436	      0.11243946	      1.06094002	    -24.93723904	     -2.30572353	    -21.58205609	      0.74962159	      7.81073476	     16.90128235	      0.00000000	    -23.91175508	      0.34762380	    -14.04368019	      0.06715014	      5.62908545	     11.49145532	      0.00000000	    -39.75141564	     -1.80983096	     -0.85260731
      1.78000000	    -82.83194265	    109.20643406	     85.85306043	     -0.63596639	      0.11239254	      1.06058029	    -24.00971431	     -2.32275253	    -21.48283360	      0.67079736	      7.65227537	     16.76977978	      0.00000000	    -22.95530074	      0.33017915	    -14.01289519	     -0.07702287	      5.51281190	     11.38827279	      0.00000000	    -39.75310779	     -1.77474772	     -0.87951516
      1.80000000	    -82.73754451	    108.49955405	     85.74741593	     -0.63806323	      0.11230968	      1.06016180	    -23.02765626	     -2.32426141	    -21.39642606	      0.58375132	      7.49247212	     16.62447713	      0.00000000	    -21.93353280	      0.29614596	    -13.96922629	     -0.24932182	      5.41191444	     11.27671173	      0.00000000	    -39.73932475	     -1.73425059	     -0.91355243
      1.82000000	    -82.61432868	    107.76411149	     85.61878643	     -0.64024385	      0.11219123	      1.05968896	    -22.00689018	     -2.32346626	    -21.31923014	      0.49453897	      7.34022878	     16.47090653	      0.00000000	    -20.86367953	      0.25945486	    -13.92284250	     -0.44022901	      5.30872860	     11.15900336	      0.00000000	    -39.71583933	     -1.69904314	     -0.95818003
      1.84000000	    -82.47110974	    107.01828813	     85.45975182	     -0.64248671	      0.11204993	      1.05918589	    -20.95885891	     -2.33138133	    -21.23530540	      0.38548120	      7.19856032	     16.32095579	      0.00000000	    -19.77769737	      0.22797463	    -13.88172211	     -0.63363833	      5.19504153	     11.02744037	      0.00000000	    -39.70008226	     -1.67412409	     -0.99949892
      1.86000000	    -82.31666090	    106.26548305	     85.26865001	     -0.64474595	      0.11187444	      1.05866312	    -19.88918414	     -2.34860532	    -21.12949289	      0.25683454	      7.05750406	     16.17782105	      0.00000000	    -18.69005081	      0.20211968	    -13.85325438	     -0.81833398	      5.06322370	     10.88390333	      0.00000000	    -39.69293459	     -1.66251985	     -1.02989062
      1.88000000	    -82.13854249	    105.50299837	     85.05269823	     -0.64701451	      0.11168533	      1.05812076	    -18.80058820	     -2.36898289	    -21.01398184	      0.11399710	      6.91159835	     16.03322555	      0.00000000	    -17.59303417	      0.17629515	    -13.81320489	     -1.00101859	      4.91700397	     10.72178768	      0.00000000	    -39.69139321	     -1.65336703	     -1.06541164
      1.90000000	    -81.90806923	    104.73318278	     84.80286604	     -0.64930671	      0.11151853	      1.05755504	    -17.70033182	     -2.39334102	    -20.90411295	     -0.03780719	      6.76209871	     15.88084455	      0.00000000	    -16.48294711	      0.15229296	    -13.73710133	     -1.18639255	      4.76265695	     10.53899791	      0.00000000	    -39.69835852	     -1.63610394	     -1.12218526
      1.92000000	    -81.62573191	    103.95289836	     84.52237807	     -0.65163562	      0.11135883	      1.05695327	    -16.58546623	     -2.41706938	    -20.80114090	     -0.19705256	      6.61257262	     15.71860586	      0.00000000	    -15.35553370	      0.12556678	    -13.62289138	     -1.37218416	      4.60798037	     10.34332318	      0.00000000	    -39.70948330	     -1.60773992	     -1.19744609
      1.94000000	    -81.30670081	    103.14897851	     84.20991403	     -0.65400048	      0.11120114	      1.05629785	    -15.43957131	     -2.43937327	    -20.68349455	     -0.36383172	      6.46070034	     15.53691814	      0.00000000	    -14.20253334	      0.09652251	    -13.50727762	     -1.55231932	      4.45391903	     10.15730715	      0.00000000	    -39.71183544	     -1.57089972	     -1.27044541
      1.96000000	    -80.68492298	    102.27394557	     83.59468887	     -0.65640306	      0.11102842	      1.05553139	    -14.19807601	     -2.51948159	    -20.56275653	     -0.55390801	      6.34601531	     15.37758772	      0.00000000	    -12.95871937	      0.11763352	    -13.43798585	     -1.73816222	      4.27439259	     10.03908181	      0.00000000	    -39.64851052	     -1.58096601	     -1.36062113
      1.98000000	    -80.27782911	    101.34020753	     83.19257670	     -0.65887008	      0.11086633	      1.05468788	    -12.89168571	     -2.52567130	    -20.38946586	     -0.74447413	      6.16931844	     15.14182705	      0.00000000	    -11.65496154	      0.06653519	    -13.36303703	     -1.92645342	      4.11997374	      9.89764690	      0.00000000	    -39.54419948	     -1.52918821	     -1.39536417
      2.00000000	    -79.92171204	    100.41334914	     82.93692846	     -0.66137241	      0.11079319	      1.05382732	    -11.63167340	     -2.47393619	    -20.26333855	     -0.88275349	      5.93386798	     14.79053669	      0.00000000	    -10.34172786	     -0.02820207	    -13.17276136	     -2.13380680	      3.98852067	      9.72199649	      0.00000000	    -39.46459669	     -1.40335681	     -1.50324535
      2.02000000	    -78.55566960	     99.38644448	     81.58198878	     -0.66385306	      0.11066228	      1.05279552	    -10.19580190	     -2.61696445	    -20.12220006	     -1.09843026	      5.81836628	     14.62873829	      0.00000000	     -8.91808964	      0.05593986	    -13.11856429	     -2.30887102	      3.76240391	      9.58760953	      0.00000000	    -39.26690200	     -1.46245398	     -1.57457054
      2.04000000	    -77.49487119	     98.40099345	     80.58239074	     -0.66633792	      0.11060242	      1.05178414	     -8.84004010	     -2.64501875	    -19.97623200	     -1.27045481	      5.63219566	     14.32723368	      0.00000000	     -7.53319648	      0.03731420	    -13.04555481	     -2.51066198	      3.58347225	      9.49102811	      0.00000000	    -39.13726728	     -1.40313353	     -1.61130496
      2.06000000	    -76.31392528	     97.40920184	     79.38137407	     -0.66881753	      0.11048322	      1.05073300	     -7.44292230	     -2.67261305	    -19.75742116	     -1.48852175	      5.45843425	     14.07436886	      0.00000000	     -6.16251852	      0.01490079	    -13.03077049	     -2.68598238	      3.37353955	      9.31661769	      0.00000000	    -39.01134204	     -1.36377266	     -1.55944870
      2.08000000	    -74.67331103	     96.43546025	     77.81226743	     -0.67127659	      0.11041002	      1.04966979	     -6.09360959	     -2.68947144	    -19.62542197	     -1.66460154	      5.25264368	     13.75946928	      0.00000000	     -4.78220030	     -0.00981098	    -12.88443595	     -2.88967301	      3.15785337	      9.12004873	      0.00000000	    -38.90949642	     -1.28772112	     -1.58145138
      2.10000000	    -72.88355989	     95.45585505	     75.94432593	     -0.67372328	      0.11018145	      1.04856709	     -4.70135871	     -2.68561246	    -19.32557663	     -1.87979342	      5.04478181	     13.49531407	      0.00000000	     -3.42211352	     -0.06959132	    -12.99557168	     -3.08875824	      3.00227198	      9.05772133	      0.00000000	    -38.81208026	     -1.25075007	     -1.51016464
      2.12000000	    -69.65949918	     94.47742689	     72.79130694	     -0.67622293	      0.11005690	      1.04741132	     -3.33831434	     -2.69837817	    -19.16184052	     -2.02734643	      4.78679047	     13.11505073	      0.00000000	     -2.00299690	     -0.09219506	    -12.80125010	     -3.32388376	      2.81637077	      8.79618468	      0.00000000	    -38.71100920	     -1.17644427	     -1.59302344
      2.14000000	    -63.98224683	     93.49220160	     67.05501304	     -0.67872678	      0.10988751	      1.04614469	     -1.86679382	     -2.78378814	    -19.10157628	     -2.27901922	      4.70183109	     13.16798077	      0.00000000	     -0.56528466	     -0.07144199	    -12.81864409	     -3.53121965	      2.61223271	      8.63272702	      0.00000000	    -38.57130039	     -1.18980286	     -1.54125249
      2.16000000	    -63.82053710	     93.03027915	     66.87723410	     -0.68090903	      0.10974484	      1.04565731	     -1.25429412	     -2.58808193	    -19.03633388	     -2.24180550	      4.38333691	     13.02742317	      0.00000000	      0.07648212	     -0.26647297	    -12.77910295	     -3.57408835	      2.49635549	      8.53069857	      0.00000000	    -39.09048530	     -0.98343265	     -1.43286518
